<?xml version="1.0" encoding="UTF-8"?>
<svg width="626px" height="352px" viewBox="0 0 626 352" version="1.1" xmlns="http://www.w3.org/2000/svg" xmlns:xlink="http://www.w3.org/1999/xlink">
    <!-- Generator: Sketch 53 (72520) - https://sketchapp.com -->
    <title>Illustration / Hero / Libraries (626x352px trimm box)</title>
    <desc>Created with Sketch.</desc>
    <g id="Illustration-/-Hero-/-Libraries-(626x352px-trimm-box)" stroke="none" stroke-width="1" fill="none" fill-rule="evenodd">
        <g id="Group-178">
            <polygon id="Fill-1" fill-opacity="0" fill="#FFFFFF" points="0 352 626 352 626 0 0 0"></polygon>
            <g id="Group-48" transform="translate(95.000000, 18.000000)">
                <path d="M160.5205,273.2007 L204.9435,247.6647 C208.7885,245.4547 213.5385,245.5447 217.2955,247.8997 L220.9135,250.1657 C224.6775,252.5257 229.4375,252.6117 233.2855,250.3897 L251.6215,239.8037 C255.4925,237.5687 255.6475,232.0367 251.9085,229.5877 C248.5845,227.4117 248.7285,222.4957 252.1715,220.5167 L376.1545,149.2467 C376.7735,148.8917 377.5345,148.8917 378.1515,149.2487 L400.9365,162.4037 C404.9365,164.7137 404.9365,170.4867 400.9365,172.7967 L360.4995,196.1427" id="Stroke-2" stroke="#E5E6E8" stroke-width="2"></path>
                <path d="M360.499,81.4565 L160.52,196.4105 L116.638,171.0655 C112.925,168.9215 108.35,168.9205 104.636,171.0645 L44.126,205.9995" id="Stroke-4" stroke="#425066" stroke-width="2"></path>
                <path d="M360.499,4.1421 L335.798,18.4031 C331.798,20.7121 331.798,26.4861 335.798,28.7951 L351.054,37.6031 C355.054,39.9131 355.054,45.6861 351.054,47.9961 L330.186,60.0441 C328.337,61.1111 326.06,61.1161 324.207,60.0561 L299.813,46.1071 C296.103,43.9851 291.546,43.9971 287.847,46.1381 L150.098,125.8431 C146.384,127.9921 141.804,127.9941 138.088,125.8481 L50.126,75.0631 C46.413,72.9201 41.839,72.9201 38.126,75.0631 L3.809,94.8771 C-0.179,97.1791 -0.194,102.9291 3.78,105.2531 L94.01,158.0001" id="Stroke-6" stroke="#E5E6E8" stroke-width="2"></path>
                <path d="M393.9307,100.041 L369.2977,114.404 C365.3477,116.708 365.3227,122.406 369.2517,124.744 L400.6907,143.452 C404.6237,145.793 404.5927,151.499 400.6337,153.797 L349.6117,183.409 C345.8917,185.568 341.3007,185.571 337.5787,183.417 L299.6257,161.46 C295.9077,159.295 291.3147,159.287 287.5877,161.438 L133.2647,250.536 C129.5517,252.68 124.9777,252.68 121.2647,250.536 L77.3817,225.2" id="Stroke-8" stroke="#FF6F00" stroke-width="2"></path>
                <path d="M343.457,206.0186 L316.161,221.7476 C312.453,223.8846 307.887,223.8846 304.179,221.7476 L282.961,209.5206 C279.206,207.3576 274.576,207.3866 270.849,209.5966 L260.708,215.6096" id="Stroke-10" stroke="#E5E6E8" stroke-width="2"></path>
                <path d="M98.0098,158 C98.0098,155.791 96.2188,154 94.0098,154 C91.8008,154 90.0098,155.791 90.0098,158 C90.0098,160.209 91.8008,162 94.0098,162 C96.2188,162 98.0098,160.209 98.0098,158" id="Fill-12" fill="#E5E6E8"></path>
                <path d="M98.0098,158 C98.0098,155.791 96.2188,154 94.0098,154 C91.8008,154 90.0098,155.791 90.0098,158 C90.0098,160.209 91.8008,162 94.0098,162 C96.2188,162 98.0098,160.209 98.0098,158 Z" id="Stroke-14" stroke="#E5E6E8" stroke-width="2"></path>
                <path d="M48.126,206 C48.126,203.791 46.336,202 44.126,202 C41.917,202 40.126,203.791 40.126,206 C40.126,208.209 41.917,210 44.126,210 C46.336,210 48.126,208.209 48.126,206" id="Fill-16" fill="#425066"></path>
                <path d="M48.126,206 C48.126,203.791 46.336,202 44.126,202 C41.917,202 40.126,203.791 40.126,206 C40.126,208.209 41.917,210 44.126,210 C46.336,210 48.126,208.209 48.126,206 Z" id="Stroke-18" stroke="#425066" stroke-width="2"></path>
                <path d="M364.499,196.1431 C364.499,193.9341 362.708,192.1431 360.499,192.1431 C358.29,192.1431 356.499,193.9341 356.499,196.1431 C356.499,198.3521 358.29,200.1431 360.499,200.1431 C362.708,200.1431 364.499,198.3521 364.499,196.1431" id="Fill-20" fill="#F5F6F7"></path>
                <path d="M364.499,196.1431 C364.499,193.9341 362.708,192.1431 360.499,192.1431 C358.29,192.1431 356.499,193.9341 356.499,196.1431 C356.499,198.3521 358.29,200.1431 360.499,200.1431 C362.708,200.1431 364.499,198.3521 364.499,196.1431 Z" id="Stroke-22" stroke="#E5E6E8" stroke-width="2"></path>
                <path d="M347.457,206.0186 C347.457,203.8096 345.666,202.0186 343.457,202.0186 C341.248,202.0186 339.457,203.8096 339.457,206.0186 C339.457,208.2276 341.248,210.0186 343.457,210.0186 C345.666,210.0186 347.457,208.2276 347.457,206.0186" id="Fill-24" fill="#E5E6E8"></path>
                <path d="M347.457,206.0186 C347.457,203.8096 345.666,202.0186 343.457,202.0186 C341.248,202.0186 339.457,203.8096 339.457,206.0186 C339.457,208.2276 341.248,210.0186 343.457,210.0186 C345.666,210.0186 347.457,208.2276 347.457,206.0186 Z" id="Stroke-26" stroke="#E5E6E8" stroke-width="2"></path>
                <path d="M397.9307,100.041 C397.9307,97.832 396.1397,96.041 393.9307,96.041 C391.7207,96.041 389.9307,97.832 389.9307,100.041 C389.9307,102.25 391.7207,104.041 393.9307,104.041 C396.1397,104.041 397.9307,102.25 397.9307,100.041" id="Fill-28" fill="#FF6F00"></path>
                <path d="M397.9307,100.041 C397.9307,97.832 396.1397,96.041 393.9307,96.041 C391.7207,96.041 389.9307,97.832 389.9307,100.041 C389.9307,102.25 391.7207,104.041 393.9307,104.041 C396.1397,104.041 397.9307,102.25 397.9307,100.041 Z" id="Stroke-30" stroke="#FF6F00" stroke-width="2"></path>
                <path d="M364.499,81.4565 C364.499,79.2475 362.708,77.4565 360.499,77.4565 C358.29,77.4565 356.499,79.2475 356.499,81.4565 C356.499,83.6655 358.29,85.4565 360.499,85.4565 C362.708,85.4565 364.499,83.6655 364.499,81.4565" id="Fill-32" fill="#F5F6F7"></path>
                <path d="M364.499,81.4565 C364.499,79.2475 362.708,77.4565 360.499,77.4565 C358.29,77.4565 356.499,79.2475 356.499,81.4565 C356.499,83.6655 358.29,85.4565 360.499,85.4565 C362.708,85.4565 364.499,83.6655 364.499,81.4565 Z" id="Stroke-34" stroke="#425066" stroke-width="2"></path>
                <path d="M364.499,4.1421 C364.499,1.9331 362.708,0.1421 360.499,0.1421 C358.29,0.1421 356.499,1.9331 356.499,4.1421 C356.499,6.3511 358.29,8.1421 360.499,8.1421 C362.708,8.1421 364.499,6.3511 364.499,4.1421" id="Fill-36" fill="#F5F6F7"></path>
                <path d="M364.499,4.1421 C364.499,1.9331 362.708,0.1421 360.499,0.1421 C358.29,0.1421 356.499,1.9331 356.499,4.1421 C356.499,6.3511 358.29,8.1421 360.499,8.1421 C362.708,8.1421 364.499,6.3511 364.499,4.1421 Z" id="Stroke-38" stroke="#E5E6E8" stroke-width="2"></path>
                <path d="M164.5205,273.2007 C164.5205,270.9917 162.7295,269.2007 160.5205,269.2007 C158.3115,269.2007 156.5205,270.9917 156.5205,273.2007 C156.5205,275.4097 158.3115,277.2007 160.5205,277.2007 C162.7295,277.2007 164.5205,275.4097 164.5205,273.2007" id="Fill-40" fill="#F5F6F7"></path>
                <path d="M164.5205,273.2007 C164.5205,270.9917 162.7295,269.2007 160.5205,269.2007 C158.3115,269.2007 156.5205,270.9917 156.5205,273.2007 C156.5205,275.4097 158.3115,277.2007 160.5205,277.2007 C162.7295,277.2007 164.5205,275.4097 164.5205,273.2007 Z" id="Stroke-42" stroke="#E5E6E8" stroke-width="2"></path>
                <path d="M81.3818,225.2002 C81.3818,222.9912 79.5908,221.2002 77.3818,221.2002 C75.1728,221.2002 73.3818,222.9912 73.3818,225.2002 C73.3818,227.4092 75.1728,229.2002 77.3818,229.2002 C79.5908,229.2002 81.3818,227.4092 81.3818,225.2002" id="Fill-44" fill="#F5F6F7"></path>
                <path d="M81.3818,225.2002 C81.3818,222.9912 79.5908,221.2002 77.3818,221.2002 C75.1728,221.2002 73.3818,222.9912 73.3818,225.2002 C73.3818,227.4092 75.1728,229.2002 77.3818,229.2002 C79.5908,229.2002 81.3818,227.4092 81.3818,225.2002 Z" id="Stroke-46" stroke="#FF6F00" stroke-width="2"></path>
            </g>
            <polygon id="Fill-49" fill="#3A485F" points="386.3809 205.0488 379.4519 209.0488 379.4519 153.0488 386.3809 149.0488"></polygon>
            <polygon id="Fill-50" fill="#F8F9FA" points="348.2754 127.0493 341.3474 131.0493 379.4524 153.0493 386.3804 149.0493"></polygon>
            <polygon id="Fill-51" fill="#CED0D1" points="379.4521 209.0488 341.3481 187.0488 341.3481 131.0488 379.4521 153.0488"></polygon>
            <g id="Group-150" transform="translate(161.000000, 51.000000)">
                <path d="M211.7646,126.186 L187.0356,111.909 C185.2546,110.881 183.8116,108.123 183.8116,105.749 L183.8116,90.347 C183.8116,87.974 185.2546,86.882 187.0356,87.91 L211.7646,102.188 C213.5446,103.216 214.9886,105.974 214.9886,108.347 L214.9886,123.749 C214.9886,126.123 213.5446,127.214 211.7646,126.186" id="Fill-52" fill="#E5E6E8"></path>
                <polygon id="Fill-54" fill="#3A485F" points="284.3857 120.0347 277.4567 124.0347 277.4567 68.0347 284.3857 64.0347"></polygon>
                <polygon id="Fill-56" fill="#F8F9FA" points="246.2803 42.0352 239.3523 46.0352 277.4573 68.0352 284.3853 64.0352"></polygon>
                <polygon id="Fill-58" fill="#CED0D1" points="277.457 124.0347 239.353 102.0347 239.353 46.0347 277.457 68.0347"></polygon>
                <path d="M270.7695,92.1719 L246.0405,77.8949 C244.2595,76.8669 242.8165,74.1089 242.8165,71.7349 L242.8165,56.3329 C242.8165,53.9599 244.2595,52.8679 246.0405,53.8959 L270.7695,68.1739 C272.5495,69.2019 273.9935,71.9599 273.9935,74.3329 L273.9935,89.7349 C273.9935,92.1089 272.5495,93.1999 270.7695,92.1719" id="Fill-60" fill="#E5E6E8"></path>
                <polygon id="Fill-62" fill="#3A485F" points="204.6348 166.0186 197.7068 170.0186 197.7068 114.0186 204.6348 110.0186"></polygon>
                <polygon id="Fill-64" fill="#F8F9FA" points="166.5303 88.019 159.6013 92.019 197.7073 114.019 204.6343 110.019"></polygon>
                <polygon id="Fill-66" fill="#CED0D1" points="197.707 170.0186 159.602 148.0186 159.602 92.0186 197.707 114.0186"></polygon>
                <path d="M191.0186,138.1563 L166.2896,123.8783 C164.5086,122.8503 163.0656,120.0933 163.0656,117.7193 L163.0656,102.3173 C163.0656,99.9433 164.5086,98.8523 166.2896,99.8803 L191.0186,114.1573 C192.7996,115.1863 194.2426,117.9433 194.2426,120.3173 L194.2426,135.7193 C194.2426,138.0933 192.7996,139.1843 191.0186,138.1563" id="Fill-68" fill="#E5E6E8"></path>
                <polygon id="Fill-70" fill="#3A485F" points="183.8896 177.9888 176.9606 181.9888 176.9606 125.9888 183.8896 121.9888"></polygon>
                <polygon id="Fill-72" fill="#F8F9FA" points="145.7842 99.9893 138.8562 103.9893 176.9612 125.9893 183.8892 121.9893"></polygon>
                <polygon id="Fill-74" fill="#CED0D1" points="176.9609 181.9888 138.8569 159.9888 138.8569 103.9888 176.9609 125.9888"></polygon>
                <path d="M170.2734,150.1265 L145.5444,135.8485 C143.7634,134.8205 142.3204,132.0635 142.3204,129.6895 L142.3204,114.2875 C142.3204,111.9135 143.7634,110.8225 145.5444,111.8505 L170.2734,126.1275 C172.0534,127.1555 173.4974,129.9135 173.4974,132.2875 L173.4974,147.6895 C173.4974,150.0635 172.0534,151.1545 170.2734,150.1265" id="Fill-76" fill="#E5E6E8"></path>
                <polygon id="Fill-78" fill="#3A485F" points="163.1436 189.959 156.2156 193.959 156.2156 137.959 163.1436 133.959"></polygon>
                <polygon id="Fill-80" fill="#F8F9FA" points="125.0391 111.959 118.1101 115.959 156.2161 137.959 163.1431 133.959"></polygon>
                <polygon id="Fill-82" fill="#CED0D1" points="156.2158 193.959 118.1108 171.959 118.1108 115.959 156.2158 137.959"></polygon>
                <path d="M149.5283,162.0962 L124.7993,147.8192 C123.0173,146.7912 121.5743,144.0332 121.5743,141.6592 L121.5743,126.2572 C121.5743,123.8842 123.0173,122.7922 124.7993,123.8202 L149.5283,138.0982 C151.3083,139.1262 152.7523,141.8842 152.7523,144.2572 L152.7523,159.6592 C152.7523,162.0332 151.3083,163.1242 149.5283,162.0962" id="Fill-84" fill="#E5E6E8"></path>
                <polygon id="Fill-86" fill="#3A485F" points="142.3984 201.9287 135.4694 205.9287 135.4694 149.9287 142.3984 145.9287"></polygon>
                <polygon id="Fill-88" fill="#F8F9FA" points="104.293 123.9292 97.365 127.9292 135.47 149.9292 142.398 145.9292"></polygon>
                <polygon id="Fill-90" fill="#CED0D1" points="135.4697 205.9287 97.3657 183.9287 97.3657 127.9287 135.4697 149.9287"></polygon>
                <path d="M128.7822,174.0664 L104.0532,159.7884 C102.2722,158.7604 100.8292,156.0034 100.8292,153.6294 L100.8292,138.2274 C100.8292,135.8534 102.2722,134.7624 104.0532,135.7904 L128.7822,150.0674 C130.5622,151.0954 132.0062,153.8534 132.0062,156.2274 L132.0062,171.6294 C132.0062,174.0034 130.5622,175.0944 128.7822,174.0664" id="Fill-92" fill="#E5E6E8"></path>
                <polygon id="Fill-94" fill="#3A485F" points="121.6523 213.8989 114.7243 217.8989 114.7243 161.8989 121.6523 157.8989"></polygon>
                <polygon id="Fill-96" fill="#F8F9FA" points="83.5479 135.8994 76.6189 139.8994 114.7249 161.8994 121.6519 157.8994"></polygon>
                <polygon id="Fill-98" fill="#CED0D1" points="114.7246 217.8989 76.6196 195.8989 76.6196 139.8989 114.7246 161.8989"></polygon>
                <path d="M108.0371,186.0366 L83.3081,171.7586 C81.5271,170.7306 80.0841,167.9736 80.0841,165.5996 L80.0841,150.1976 C80.0841,147.8236 81.5271,146.7326 83.3081,147.7606 L108.0371,162.0376 C109.8171,163.0656 111.2611,165.8236 111.2611,168.1976 L111.2611,183.5986 C111.2611,185.9736 109.8171,187.0646 108.0371,186.0366" id="Fill-100" fill="#E5E6E8"></path>
                <polygon id="Fill-102" fill="#3A485F" points="225.3809 78.1006 218.4519 82.1006 218.4519 26.1006 225.3809 22.1006"></polygon>
                <polygon id="Fill-104" fill="#F8F9FA" points="187.2754 0.1011 180.3474 4.1011 218.4524 26.1011 225.3804 22.1011"></polygon>
                <polygon id="Fill-106" fill="#CED0D1" points="218.4521 82.1006 180.3481 60.1006 180.3481 4.1006 218.4521 26.1006"></polygon>
                <path d="M211.7646,50.2383 L187.0356,35.9603 C185.2546,34.9323 183.8116,32.1753 183.8116,29.8013 L183.8116,14.3993 C183.8116,12.0253 185.2546,10.9343 187.0356,11.9623 L211.7646,26.2393 C213.5446,27.2673 214.9886,30.0253 214.9886,32.3993 L214.9886,47.8013 C214.9886,50.1753 213.5446,51.2663 211.7646,50.2383" id="Fill-108" fill="#E5E6E8"></path>
                <polygon id="Fill-110" fill="#3A485F" points="204.6348 90.0708 197.7068 94.0708 197.7068 38.0708 204.6348 34.0708"></polygon>
                <polygon id="Fill-112" fill="#F8F9FA" points="166.5303 12.0713 159.6013 16.0713 197.7073 38.0713 204.6343 34.0713"></polygon>
                <polygon id="Fill-114" fill="#CED0D1" points="197.707 94.0708 159.602 72.0708 159.602 16.0708 197.707 38.0708"></polygon>
                <path d="M191.0186,62.208 L166.2896,47.931 C164.5086,46.903 163.0656,44.145 163.0656,41.771 L163.0656,26.369 C163.0656,23.996 164.5086,22.904 166.2896,23.932 L191.0186,38.21 C192.7996,39.238 194.2426,41.996 194.2426,44.369 L194.2426,59.771 C194.2426,62.145 192.7996,63.236 191.0186,62.208" id="Fill-116" fill="#E5E6E8"></path>
                <polygon id="Fill-118" fill="#3A485F" points="183.8896 102.041 176.9606 106.041 176.9606 50.041 183.8896 46.041"></polygon>
                <polygon id="Fill-120" fill="#F8F9FA" points="145.7842 24.041 138.8562 28.041 176.9612 50.041 183.8892 46.041"></polygon>
                <polygon id="Fill-122" fill="#CED0D1" points="176.9609 106.041 138.8569 84.041 138.8569 28.041 176.9609 50.041"></polygon>
                <path d="M170.2734,74.1782 L145.5444,59.9012 C143.7634,58.8722 142.3204,56.1152 142.3204,53.7412 L142.3204,38.3392 C142.3204,35.9652 143.7634,34.8742 145.5444,35.9022 L170.2734,50.1792 C172.0534,51.2082 173.4974,53.9652 173.4974,56.3392 L173.4974,71.7412 C173.4974,74.1152 172.0534,75.2062 170.2734,74.1782" id="Fill-124" fill="#E5E6E8"></path>
                <polygon id="Fill-126" fill="#3A485F" points="163.1436 114.0107 156.2156 118.0107 156.2156 62.0107 163.1436 58.0107"></polygon>
                <polygon id="Fill-128" fill="#F8F9FA" points="125.0391 36.0112 118.1101 40.0112 156.2161 62.0112 163.1431 58.0112"></polygon>
                <polygon id="Fill-130" fill="#CED0D1" points="156.2158 118.0107 118.1108 96.0107 118.1108 40.0107 156.2158 62.0107"></polygon>
                <path d="M149.5283,86.1484 L124.7993,71.8704 C123.0173,70.8424 121.5743,68.0854 121.5743,65.7114 L121.5743,50.3094 C121.5743,47.9354 123.0173,46.8444 124.7993,47.8724 L149.5283,62.1494 C151.3083,63.1774 152.7523,65.9354 152.7523,68.3094 L152.7523,83.7114 C152.7523,86.0854 151.3083,87.1764 149.5283,86.1484" id="Fill-132" fill="#E5E6E8"></path>
                <polygon id="Fill-134" fill="#3A485F" points="142.3984 125.981 135.4694 129.981 135.4694 73.981 142.3984 69.981"></polygon>
                <polygon id="Fill-136" fill="#F8F9FA" points="104.293 47.9814 97.365 51.9814 135.47 73.9814 142.398 69.9814"></polygon>
                <polygon id="Fill-138" fill="#CED0D1" points="135.4697 129.981 97.3657 107.981 97.3657 51.981 135.4697 73.981"></polygon>
                <path d="M128.7822,98.1182 L104.0532,83.8412 C102.2722,82.8132 100.8292,80.0552 100.8292,77.6812 L100.8292,62.2792 C100.8292,59.9062 102.2722,58.8142 104.0532,59.8422 L128.7822,74.1202 C130.5622,75.1482 132.0062,77.9062 132.0062,80.2792 L132.0062,95.6812 C132.0062,98.0552 130.5622,99.1462 128.7822,98.1182" id="Fill-140" fill="#E5E6E8"></path>
                <polygon id="Fill-142" fill="#3A485F" points="45.3906 94.0679 38.4616 98.0679 38.4616 42.0679 45.3906 38.0679"></polygon>
                <polygon id="Fill-144" fill="#F8F9FA" points="7.2852 16.0684 0.3572 20.0684 38.4622 42.0684 45.3902 38.0684"></polygon>
                <polygon id="Fill-146" fill="#CED0D1" points="38.4619 98.0679 0.3579 76.0679 0.3579 20.0679 38.4619 42.0679"></polygon>
                <path d="M31.7744,66.2056 L7.0454,51.9276 C5.2644,50.8996 3.8214,48.1426 3.8214,45.7686 L3.8214,30.3666 C3.8214,27.9926 5.2644,26.9016 7.0454,27.9296 L31.7744,42.2066 C33.5544,43.2346 34.9984,45.9926 34.9984,48.3666 L34.9984,63.7686 C34.9984,66.1426 33.5544,67.2336 31.7744,66.2056" id="Fill-148" fill="#E5E6E8"></path>
            </g>
            <g id="Group-177" transform="translate(231.000000, 88.000000)">
                <path d="M32.3818,52.2231 C32.3818,46.7001 36.8598,42.2231 42.3818,42.2231 C47.9048,42.2231 52.3818,46.7001 52.3818,52.2231 C52.3818,57.7461 47.9048,62.2231 42.3818,62.2231 C36.8598,62.2231 32.3818,57.7461 32.3818,52.2231" id="Fill-151" fill="#FF6F00"></path>
                <path d="M40.293,5.9814 C38.472,4.9294 36.679,4.0384 34.923,3.3044" id="Stroke-153" stroke="#FF6F00" stroke-width="2"></path>
                <path d="M27.5928,1.0923 C15.0668,-1.1567 5.4308,5.4293 2.3588,18.7283" id="Stroke-155" stroke="#FF6F00" stroke-width="2" stroke-dasharray="11.498,7.665"></path>
                <path d="M1.6895,22.4922 C1.4475,24.3792 1.3225,26.3772 1.3225,28.4812" id="Stroke-157" stroke="#FF6F00" stroke-width="2"></path>
                <path d="M79.2646,73.481 C79.2646,71.515 79.1556,69.515 78.9436,67.493" id="Stroke-159" stroke="#FF6F00" stroke-width="2"></path>
                <path d="M77.6045,59.4893 C73.5425,41.6163 62.4105,23.2063 48.5305,11.7443" id="Stroke-161" stroke="#FF6F00" stroke-width="2" stroke-dasharray="12.178,8.118"></path>
                <path d="M45.3184,9.2534 C43.6734,8.0594 41.9964,6.9644 40.2934,5.9814" id="Stroke-163" stroke="#FF6F00" stroke-width="2"></path>
                <path d="M40.293,95.9805 C42.115,97.0325 43.908,97.9235 45.663,98.6575" id="Stroke-165" stroke="#FF6F00" stroke-width="2"></path>
                <path d="M52.9941,100.8696 C65.5191,103.1186 75.1551,96.5326 78.2281,83.2336" id="Stroke-167" stroke="#FF6F00" stroke-width="2" stroke-dasharray="11.498,7.665"></path>
                <path d="M78.8975,79.4697 C79.1395,77.5827 79.2645,75.5847 79.2645,73.4807" id="Stroke-169" stroke="#FF6F00" stroke-width="2"></path>
                <path d="M1.3223,28.481 C1.3223,30.447 1.4313,32.447 1.6433,34.469" id="Stroke-171" stroke="#FF6F00" stroke-width="2"></path>
                <path d="M2.9814,42.4727 C7.0434,60.3457 18.1764,78.7567 32.0554,90.2177" id="Stroke-173" stroke="#FF6F00" stroke-width="2" stroke-dasharray="12.178,8.118"></path>
                <path d="M35.2676,92.7085 C36.9136,93.9025 38.5906,94.9975 40.2926,95.9805" id="Stroke-175" stroke="#FF6F00" stroke-width="2"></path>
            </g>
        </g>
    </g>
</svg>